# xmcd
#
# Track frame offsets:
#	150
#	10785
#	18784
#	28096
#	31891
#	42132
#	51529
#	59038
#	68460
#	80553
#	87088
#	96318
#	107103
#	115093
#	125292
#	137084
#	148418
#	159996
#
# Disc length: 2372 seconds
#
# Revision: 0
# Processed by: cddbd v1.5.2PL0 Copyright (c) Steve Scherf et al.
# Submitted via: EasyCDDAExtractor 16.0.6.1
#
DISCID=ef094212
DTITLE=Συλλογικός δίσκος - Δέκα οκτώ λιανοτράγουδα πικρής πατρίδας
DYEAR=2010
DGENRE=Έντεχνη λαϊκή
TTITLE0=Καμένος Κώστας - Αναβάφτιση [Μ. Θεοδωράκης-Γ. Ρίτσος]
TTITLE1=Καμένος Κώστας-Βιτάλη Ελένη - Κουβέντα μ' ένα λουλούδι [Μ. Θεοδωράκης-
TTITLE1=Γ. Ρίτσος]
TTITLE2=Δημητριάδη Μαρία-Καμένος Κώστας - Καρτέρεμα [Μ. Θεοδωράκης-Γ. Ρίτσος]
TTITLE3=Δημητριάδη Μαρία - Λαός [Μ. Θεοδωράκης-Γ. Ρίτσος]
TTITLE4=Πασπαράκης Σταύρος - Μνημόσυνο [Μ. Θεοδωράκης-Γ. Ρίτσος]
TTITLE5=Βιτάλη Ελένη-Καμένος Κώστας - Αυγή [Μ. Θεοδωράκης-Γ. Ρίτσος]
TTITLE6=Καμένος Κώστας - Δε φτάνει [Μ. Θεοδωράκης-Γ. Ρίτσος]
TTITLE7=Καμένος Κώστας-Βιτάλη Ελένη - Πράσινη μέρα [Μ. Θεοδωράκης-Γ. Ρίτσος]
TTITLE8=Κρυστάλη Σάνια - Συλλείτουργο [Μ. Θεοδωράκης-Γ. Ρίτσος]
TTITLE9=Κρυστάλη Σάνια - Το νερό [Μ. Θεοδωράκης-Γ. Ρίτσος]
TTITLE10=Βιτάλη Ελένη-Καμένος Κώστας - Το κυκλάμινο [Μ. Θεοδωράκης-Γ. Ρίτσος]
TTITLE11=Καμένος Κώστας-Βιτάλη Ελένη - Λιγνά κορίτσια [Μ. Θεοδωράκης-Γ. Ρίτσος
TTITLE11=]
TTITLE12=Δημητριάδη Μαρία - Τ' άσπρο ξωκλήσι [Μ. Θεοδωράκης-Γ. Ρίτσος]
TTITLE13=Βιτάλη Ελένη - Επιτύμβιο [Μ. Θεοδωράκης-Γ. Ρίτσος]
TTITLE14=Καμένος Κώστας - Εδώ το φως [Μ. Θεοδωράκης-Γ. Ρίτσος]
TTITLE15=Πασπαράκης Σταύρος-Δημητριάδη Μαρία - Το χτίσιμο [Μ. Θεοδωράκης-Γ. Ρί
TTITLE15=τσος]
TTITLE16=Δημητριάδη Μαρία - Ο ταμένος [Μ. Θεοδωράκης-Γ. Ρίτσος]
TTITLE17=Δημητριάδη Μαρία-Καμένος Κ.-Βιτάλη Ε.-Κρυστάλη Σ. - Τη Ρωμιοσύνη μην 
TTITLE17=την κλαίς [Μ. Θεοδωράκης-Γ. Ρίτσος]
EXTD=
EXTT0=
EXTT1=
EXTT2=
EXTT3=
EXTT4=
EXTT5=
EXTT6=
EXTT7=
EXTT8=
EXTT9=
EXTT10=
EXTT11=
EXTT12=
EXTT13=
EXTT14=
EXTT15=
EXTT16=
EXTT17=
PLAYORDER=
